<svg xmlns="http://www.w3.org/2000/svg" xmlns:xlink="http://www.w3.org/1999/xlink" class="icon icon-account" viewBox="0 0 1024 1024" width="100%" height="100%"><path class="path1" d="M486.4 563.2c-155.275 0-281.6-126.325-281.6-281.6s126.325-281.6 281.6-281.6 281.6 126.325 281.6 281.6-126.325 281.6-281.6 281.6zM486.4 51.2c-127.043 0-230.4 103.357-230.4 230.4s103.357 230.4 230.4 230.4c127.042 0 230.4-103.357 230.4-230.4s-103.358-230.4-230.4-230.4z"></path><path class="path2" d="M896 1024h-819.2c-42.347 0-76.8-34.451-76.8-76.8 0-3.485 0.712-86.285 62.72-168.96 36.094-48.126 85.514-86.36 146.883-113.634 74.957-33.314 168.085-50.206 276.797-50.206 108.71 0 201.838 16.893 276.797 50.206 61.37 27.275 110.789 65.507 146.883 113.634 62.008 82.675 62.72 165.475 62.72 168.96 0 42.349-34.451 76.8-76.8 76.8zM486.4 665.6c-178.52 0-310.267 48.789-381 141.093-53.011 69.174-54.195 139.904-54.2 140.61 0 14.013 11.485 25.498 25.6 25.498h819.2c14.115 0 25.6-11.485 25.6-25.6-0.006-0.603-1.189-71.333-54.198-140.507-70.734-92.304-202.483-141.093-381.002-141.093z"></path></svg>